<svg width="32" height="33" viewBox="0 0 32 33" fill="none" xmlns="http://www.w3.org/2000/svg">
<path fill-rule="evenodd" clip-rule="evenodd" d="M4.65214 1.75H0V0.25H4.65214C6.00406 0.25 7.15546 1.23264 7.36796 2.56775L7.99688 6.51925H29.7121C30.8545 6.51925 31.6906 7.59601 31.4076 8.70277L29.5067 16.1368C29.0823 17.7967 27.5869 18.9578 25.8736 18.9578H9.9766L10.3874 21.5387C10.484 22.1456 11.0073 22.5923 11.6218 22.5923H28.203V24.0923H11.6218C10.2699 24.0923 9.11852 23.1096 8.90602 21.7745L5.8866 2.80352C5.79002 2.19665 5.26665 1.75 4.65214 1.75ZM9.73786 17.4578H25.8736C26.9016 17.4578 27.7988 16.7611 28.0535 15.7652L29.9543 8.33118C29.9948 8.17307 29.8753 8.01925 29.7121 8.01925H8.23562L9.73786 17.4578Z" fill="black"/>
<path d="M15.7689 29.766C15.7689 31.0682 14.7584 32.0762 13.5695 32.0762C12.3807 32.0762 11.3701 31.0682 11.3701 29.766C11.3701 28.4638 12.3807 27.4558 13.5695 27.4558C14.7584 27.4558 15.7689 28.4638 15.7689 29.766Z" stroke="black" stroke-width="1.5"/>
<path d="M28.746 29.766C28.746 31.0682 27.7354 32.0762 26.5466 32.0762C25.3577 32.0762 24.3472 31.0682 24.3472 29.766C24.3472 28.4638 25.3577 27.4558 26.5466 27.4558C27.7354 27.4558 28.746 28.4638 28.746 29.766Z" stroke="black" stroke-width="1.5"/>
</svg>
